<?xml version="1.0" encoding="utf-8"?>
<!-- Generator: Adobe Illustrator 22.0.0, SVG Export Plug-In . SVG Version: 6.00 Build 0)  -->
<svg version="1.1" id="图层_1" xmlns="http://www.w3.org/2000/svg" xmlns:xlink="http://www.w3.org/1999/xlink" x="0px" y="0px"
	 viewBox="0 0 100 50" style="enable-background:new 0 0 100 50;" xml:space="preserve">
<style type="text/css">
	.st0{fill:url(#SVGID_1_);}
	.st1{fill:url(#SVGID_2_);}
	.st2{fill:url(#SVGID_3_);}
	.st3{fill:url(#SVGID_4_);}
	.st4{fill:url(#SVGID_5_);}
	.st5{fill:url(#SVGID_6_);}
</style>
<g>
	<linearGradient id="SVGID_1_" gradientUnits="userSpaceOnUse" x1="0.1592" y1="22.604" x2="17.6196" y2="22.604">
		<stop  offset="0" style="stop-color:#EF515F"/>
		<stop  offset="0.198" style="stop-color:#E64B5D"/>
		<stop  offset="0.5272" style="stop-color:#CC3B59"/>
		<stop  offset="0.9448" style="stop-color:#A32252"/>
		<stop  offset="1" style="stop-color:#9D1E51"/>
	</linearGradient>
	<path class="st0" d="M17.6,31.1h-4l-1.4-3.9H5.6l-1.4,3.9h-4l6.4-17.1h4.6L17.6,31.1z M8.9,17.6l-2.5,7.2h5L8.9,17.6z"/>
	<linearGradient id="SVGID_2_" gradientUnits="userSpaceOnUse" x1="19.2065" y1="24.9427" x2="38.9735" y2="24.9427">
		<stop  offset="0" style="stop-color:#EF515F"/>
		<stop  offset="0.198" style="stop-color:#E64B5D"/>
		<stop  offset="0.5272" style="stop-color:#CC3B59"/>
		<stop  offset="0.9448" style="stop-color:#A32252"/>
		<stop  offset="1" style="stop-color:#9D1E51"/>
	</linearGradient>
	<path class="st1" d="M39,31.1h-3.7v-7.6c-0.1-1.6-0.9-2.4-2.5-2.4H31v10h-3.7v-7.8c0-1.5-0.8-2.2-2.3-2.2h-2v10h-3.7V18.8H34
		c3.4-0.1,5,1.4,4.9,4.4V31.1z"/>
	<linearGradient id="SVGID_3_" gradientUnits="userSpaceOnUse" x1="41.1118" y1="25.0642" x2="54.4453" y2="25.0642">
		<stop  offset="0" style="stop-color:#EF515F"/>
		<stop  offset="0.198" style="stop-color:#E64B5D"/>
		<stop  offset="0.5272" style="stop-color:#CC3B59"/>
		<stop  offset="0.9448" style="stop-color:#A32252"/>
		<stop  offset="1" style="stop-color:#9D1E51"/>
	</linearGradient>
	<path class="st2" d="M54.4,25.2c-0.2,4-2.4,6.1-6.7,6.3c-4.2-0.2-6.5-2.3-6.7-6.3c0.2-4.2,2.5-6.3,6.7-6.5
		C52.1,18.8,54.3,21,54.4,25.2z M50.6,25.2c-0.1-2.6-1-4-2.9-4c-1.9,0-2.8,1.3-2.8,4c0.1,2.6,1,3.9,2.8,4
		C49.7,29.2,50.6,27.8,50.6,25.2z"/>
	<linearGradient id="SVGID_4_" gradientUnits="userSpaceOnUse" x1="56.1113" y1="25.0642" x2="69.4443" y2="25.0642">
		<stop  offset="0" style="stop-color:#EF515F"/>
		<stop  offset="0.198" style="stop-color:#E64B5D"/>
		<stop  offset="0.5272" style="stop-color:#CC3B59"/>
		<stop  offset="0.9448" style="stop-color:#A32252"/>
		<stop  offset="1" style="stop-color:#9D1E51"/>
	</linearGradient>
	<path class="st3" d="M69.4,25.2c-0.2,4-2.4,6.1-6.7,6.3c-4.2-0.2-6.5-2.3-6.7-6.3c0.2-4.2,2.5-6.3,6.7-6.5
		C67.1,18.8,69.3,21,69.4,25.2z M65.6,25.2c-0.1-2.6-1-4-2.9-4c-1.9,0-2.8,1.3-2.8,4c0.1,2.6,1,3.9,2.8,4
		C64.7,29.2,65.6,27.8,65.6,25.2z"/>
	<linearGradient id="SVGID_5_" gradientUnits="userSpaceOnUse" x1="71.5078" y1="24.9446" x2="83.7351" y2="24.9446">
		<stop  offset="0" style="stop-color:#EF515F"/>
		<stop  offset="0.198" style="stop-color:#E64B5D"/>
		<stop  offset="0.5272" style="stop-color:#CC3B59"/>
		<stop  offset="0.9448" style="stop-color:#A32252"/>
		<stop  offset="1" style="stop-color:#9D1E51"/>
	</linearGradient>
	<path class="st4" d="M83.7,31.1H80v-7.6c0-1.6-0.9-2.4-2.6-2.4h-2.1v10h-3.7V18.8h7.1c3.5-0.1,5.2,1.4,5.1,4.4V31.1z"/>
	<linearGradient id="SVGID_6_" gradientUnits="userSpaceOnUse" x1="86.4287" y1="22.1679" x2="99.2079" y2="22.1679">
		<stop  offset="0" style="stop-color:#EF515F"/>
		<stop  offset="0.198" style="stop-color:#E64B5D"/>
		<stop  offset="0.5272" style="stop-color:#CC3B59"/>
		<stop  offset="0.9448" style="stop-color:#A32252"/>
		<stop  offset="1" style="stop-color:#9D1E51"/>
	</linearGradient>
	<path class="st5" d="M92.4,31.5h-6V12.9h3.8v5.8h2.1c4.5,0,6.8,2.2,6.8,6.5C99.3,29.4,97,31.5,92.4,31.5z M91.6,21.1h-1.3v8h1.4
		c2.5,0,3.7-1.3,3.7-3.9C95.4,22.5,94.2,21.1,91.6,21.1z"/>
</g>
</svg>
